# xmcd
#
# Track frame offsets: 
#        150
#        14095
#        28562
#        42910
#        56580
#        70712
#        84429
#        97552
#        110002
#        123680
#        137522
#        150070
#        164280
#        178865
#        194920
#        209452
#        221362
#        234052
#
# Disc length: 3289 seconds
#
# Revision: 1
# Processed by: cddbd v1.5.2PL0 Copyright (c) Steve Scherf et al.
# Submitted via: ExactAudioCopy v0.99pb4
#
DISCID=ed0cd712
DTITLE=Dizzy Gillespie - Groovin' High
DYEAR=1900
DGENRE=Jazz
TTITLE0=Little John Special
TTITLE1=Interlude (A Night In Tunisia)
TTITLE2=Be-Bop
TTITLE3=Good Bait
TTITLE4=I Can't Get Started
TTITLE5=Salt Peanuts
TTITLE6=Cherokee
TTITLE7=Groovin' High
TTITLE8=Blue 'n Boogie
TTITLE9=Shaw 'Nuff
TTITLE10=Ol' Man Rebop
TTITLE11=Emanon
TTITLE12=Oopapada
TTITLE13=Lover Come Back To Me
TTITLE14=Guarachi Guard
TTITLE15=In The Land Of Oo-Bla-Dee
TTITLE16='Round About Midnight
TTITLE17=Things To Come
EXTD=
EXTT0=
EXTT1=
EXTT2=
EXTT3=
EXTT4=
EXTT5=
EXTT6=
EXTT7=
EXTT8=
EXTT9=
EXTT10=
EXTT11=
EXTT12=
EXTT13=
EXTT14=
EXTT15=
EXTT16=
EXTT17=
PLAYORDER=
